<svg width="32" height="32" viewBox="0 0 32 32" xmlns="http://www.w3.org/2000/svg">
  <circle cx="16" cy="16" r="16" fill="#2775CA"/>
  <path d="M15.75 27.75c6.213 0 11.25-5.037 11.25-11.25S21.963 5.25 15.75 5.25 4.5 10.287 4.5 16.5s5.037 11.25 11.25 11.25z" fill="white"/>
  <path d="M15.75 25.875c5.179 0 9.375-4.196 9.375-9.375S20.929 7.125 15.75 7.125 6.375 11.321 6.375 16.5s4.196 9.375 9.375 9.375z" fill="#2775CA"/>
  <path d="M17.0625 21.9375v1.6875h-1.125V22.05c-1.5-.1125-2.8125-.675-3.375-1.4625l.9-.675c.45.6 1.35 1.0875 2.475 1.0875 1.275 0 2.025-.5625 2.025-1.3875 0-.7125-.45-1.1625-1.875-1.575-1.8-.5625-2.7-1.1625-2.7-2.475 0-1.125.7875-1.9125 2.175-2.1375V11.8125h1.125v1.575c1.2.15 2.175.6 2.7 1.2l-.825.7875c-.45-.45-1.125-.825-1.875-.825-1.125 0-1.8.5625-1.8 1.275 0 .675.375 1.05 1.725 1.4625 1.95.5625 2.85 1.2375 2.85 2.6625 0 1.2-.8625 2.0625-2.4 2.25z" fill="white"/>
</svg>